<?xml version="1.0" encoding="utf-8"?>
<!-- Generator: Adobe Illustrator 24.0.1, SVG Export Plug-In . SVG Version: 6.00 Build 0)  -->
<svg version="1.1" id="Слой_1" xmlns="http://www.w3.org/2000/svg" xmlns:xlink="http://www.w3.org/1999/xlink" x="0px" y="0px"
	 viewBox="0 0 64 64" style="enable-background:new 0 0 64 64;" xml:space="preserve">
<style type="text/css">
	.st0{fill:#8B0000;}
</style>
<title>lexopedia-icon</title>
<rect width="64" height="64"/>
<path class="st0" d="M29.5,25.2c0.3-1,0.5-1.3,1.6-1.3h1.2c1.1,0,1.3,0.2,1.7,1.2l3.3,10.3c0.2,0.7,1,1,1.6,0.8
	c0.5-0.2,0.8-0.6,0.9-1l1.7-13.7c0.1-0.7-0.4-1.3-1.1-1.4c-0.1,0-0.1,0-0.2,0h-2.7c-1.6,0-2.3-0.5-2.3-1.8c0-1.5,0.8-1.8,2.5-1.8
	h8.5c0.9,0.1,1.5,0.8,1.5,1.7c0,0,0,0.1,0,0.1c0,1.2-0.7,1.8-2,1.8h-0.3l-3.7,26.3c-0.1,0.9-0.3,1.3-1,1.3h-1.9
	c-0.8,0-1.2-0.3-1.5-1.1l-4.4-14c-0.2-0.7-0.9-1.1-1.6-0.9c-0.4,0.1-0.7,0.4-0.9,0.9l-3.9,13.9c-0.2,0.9-0.5,1.1-1.4,1.1h-2
	c-0.9,0-1-0.5-1.1-1.4l-4-26.1h-0.3c-1.4,0-2-0.6-2-1.8c-0.1-0.9,0.5-1.6,1.4-1.8c0,0,0.1,0,0.1,0h8.5c1.7,0,2.5,0.3,2.5,1.8
	c0,1.2-0.8,1.8-2.3,1.8h-2.3c-0.7,0-1.3,0.6-1.3,1.3c0,0.1,0,0.1,0,0.2l1.8,13.4c0.1,0.7,0.8,1.2,1.5,1.1c0.5-0.1,0.9-0.4,1-0.9
	L29.5,25.2z"/>
<path class="st0" d="M14.7,54.5c1,0,1.9,0.7,1.9,1.8c0,0.1,0,0.2,0,0.2c0,1.3-0.7,2.2-1.9,2.2H8.1c-1.9,0-3.4-1.5-3.4-3.4V8.9
	c0-1.9,1.6-3.5,3.5-3.5c0,0,0,0,0,0h6.6c1,0,1.9,0.8,1.9,1.8c0,0.1,0,0.2,0,0.3c0.1,1.1-0.7,2-1.7,2.1c-0.1,0-0.1,0-0.2,0H11
	c-0.7,0-1.3,0.6-1.3,1.3v0v42.4c0,0.7,0.6,1.3,1.3,1.3c0,0,0,0,0,0H14.7z"/>
<path class="st0" d="M49.3,54.5c-1,0-1.9,0.7-1.9,1.8c0,0.1,0,0.2,0,0.2c0,1.3,0.7,2.2,1.9,2.2h6.6c1.9,0,3.5-1.6,3.5-3.5
	c0,0,0,0,0,0V8.9c0-1.9-1.6-3.5-3.5-3.5c0,0,0,0,0,0h-6.6c-1.2,0-1.9,0.8-1.9,2.1c-0.1,1.1,0.7,2,1.7,2.1c0.1,0,0.1,0,0.2,0H53
	c0.7,0,1.3,0.6,1.3,1.3v42.4c0,0.7-0.6,1.3-1.3,1.3H49.3z"/>
</svg>
